<svg width="100%" viewBox="0 0 680 520" xmlns=http://www.w3.org/2000/svg role="img">

  <title>EpicReads Serverless Lead Capture Architecture on AWS</title>

  <defs>

    <marker id="arrow" viewBox="0 0 10 10" refX="8" refY="5" markerWidth="6" markerHeight="6" orient="auto-start-reverse">

      <path d="M2 1L8 5L2 9" fill="none" stroke="context-stroke" stroke-width="1.5" stroke-linecap="round" stroke-linejoin="round"/>

    </marker>

    <style>

      text { font-family: Arial, sans-serif; fill: #1a1a1a; }

      .th { font-size: 13px; font-weight: 600; }

      .ts { font-size: 11px; fill: #555; }

      .c-purple rect { fill: #EEEDFE; stroke: #534AB7; }

      .c-purple text { fill: #3C3489; }

      .c-teal rect { fill: #E1F5EE; stroke: #0F6E56; }

      .c-teal text { fill: #085041; }

      .c-blue rect { fill: #E6F1FB; stroke: #185FA5; }

      .c-blue text { fill: #0C447C; }

      .c-amber rect { fill: #FAEEDA; stroke: #854F0B; }

      .c-amber text { fill: #633806; }

      .c-coral rect { fill: #FAECE7; stroke: #993C1D; }

      .c-coral text { fill: #711B13; }

      .c-green rect { fill: #EAF3DE; stroke: #3B6D11; }

      .c-green text { fill: #27500A; }

      .c-gray rect { fill: #F1EFE8; stroke: #5F5E5A; }

      .c-gray text { fill: #444441; }

      .arr { stroke: #888; fill: none; stroke-width: 1.5; }

      .dashed { stroke: #bbb; fill: none; stroke-width: 1.5; stroke-dasharray: 4 3; }

    </style>

  </defs>

  <rect x="160" y="30" width="490" height="460" rx="16" fill="none" stroke="#ccc" stroke-width="1" stroke-dasharray="6 4"/>

  <text class="ts" x="174" y="50" style="fill:#aaa">AWS Cloud</text>

  <g class="c-gray">

    <rect x="20" y="100" width="90" height="44" rx="8" stroke-width="0.5"/>

    <text class="th" x="65" y="126" text-anchor="middle">User</text>

  </g>

  <line x1="110" y1="122" x2="178" y2="122" class="arr" marker-end="url(#arrow)"/>

  <g class="c-purple">

    <rect x="180" y="100" width="110" height="44" rx="8" stroke-width="0.5"/>

    <text class="th" x="235" y="118" text-anchor="middle">CloudFront</text>

    <text class="ts" x="235" y="134" text-anchor="middle">CDN + HTTPS</text>

  </g>

  <line x1="235" y1="144" x2="235" y2="198" class="arr" marker-end="url(#arrow)"/>

  <g class="c-teal">

    <rect x="180" y="200" width="110" height="44" rx="8" stroke-width="0.5"/>

    <text class="th" x="235" y="218" text-anchor="middle">Amazon S3</text>

    <text class="ts" x="235" y="234" text-anchor="middle">Static website</text>

  </g>

  <line x1="290" y1="122" x2="358" y2="122" class="arr" marker-end="url(#arrow)"/>

  <text class="ts" x="324" y="114" text-anchor="middle" style="fill:#aaa">POST</text>

  <g class="c-blue">

    <rect x="360" y="100" width="110" height="44" rx="8" stroke-width="0.5"/>

    <text class="th" x="415" y="118" text-anchor="middle">API Gateway</text>

    <text class="ts" x="415" y="134" text-anchor="middle">REST API + CORS</text>

  </g>

  <line x1="415" y1="144" x2="415" y2="198" class="arr" marker-end="url(#arrow)"/>

  <g class="c-amber">

    <rect x="360" y="200" width="110" height="44" rx="8" stroke-width="0.5"/>

    <text class="th" x="415" y="218" text-anchor="middle">AWS Lambda</text>

    <text class="ts" x="415" y="234" text-anchor="middle">Node.js handler</text>

  </g>

  <line x1="470" y1="222" x2="538" y2="222" class="arr" marker-end="url(#arrow)"/>

  <g class="c-teal">

    <rect x="540" y="200" width="100" height="44" rx="8" stroke-width="0.5"/>

    <text class="th" x="590" y="218" text-anchor="middle">DynamoDB</text>

    <text class="ts" x="590" y="234" text-anchor="middle">Store leads</text>

  </g>

  <line x1="415" y1="244" x2="415" y2="308" class="arr" marker-end="url(#arrow)"/>

  <g class="c-coral">

    <rect x="360" y="310" width="110" height="44" rx="8" stroke-width="0.5"/>

    <text class="th" x="415" y="328" text-anchor="middle">Amazon SES</text>

    <text class="ts" x="415" y="344" text-anchor="middle">Email notify</text>

  </g>

  <line x1="415" y1="354" x2="415" y2="408" class="arr" marker-end="url(#arrow)"/>

  <g class="c-gray">

    <rect x="360" y="410" width="110" height="44" rx="8" stroke-width="0.5"/>

    <text class="th" x="415" y="428" text-anchor="middle">Gmail</text>

    <text class="ts" x="415" y="444" text-anchor="middle">Business owner</text>

  </g>

  <line x1="470" y1="240" x2="538" y2="310" class="dashed" marker-end="url(#arrow)"/>

  <g class="c-green">

    <rect x="540" y="310" width="100" height="44" rx="8" stroke-width="0.5"/>

    <text class="th" x="590" y="328" text-anchor="middle">CloudWatch</text>

    <text class="ts" x="590" y="344" text-anchor="middle">Logs + metrics</text>

  </g>

  <g class="c-gray">

    <rect x="540" y="410" width="100" height="44" rx="8" stroke-width="0.5"/>

    <text class="th" x="590" y="428" text-anchor="middle">IAM Role</text>

    <text class="ts" x="590" y="444" text-anchor="middle">Least privilege</text>

  </g>

  <line x1="540" y1="432" x2="470" y2="244" class="dashed" marker-end="url(#arrow)"/>

  <line x1="185" y1="490" x2="215" y2="490" stroke="#888" stroke-width="1.5" marker-end="url(#arrow)"/>

  <text class="ts" x="220" y="494">Data flow</text>

  <line x1="300" y1="490" x2="330" y2="490" stroke="#bbb" stroke-width="1.5" stroke-dasharray="4 3" marker-end="url(#arrow)"/>

  <text class="ts" x="335" y="494">Config / IAM</text>

</svg>
